<svg xmlns="http://www.w3.org/2000/svg" width="58" viewBox="0 0 24 24" style=""><path d="M9.845 12.572c-.163 0-.326-.021-.468-.054v.658c.136.028.37.039.522.039 1.617 0 1.949-1.165 1.949-2.28 0-1.165-.626-1.704-1.421-1.704-.81 0-1.322.506-1.322 1.35 0 .783.43 1.23 1.094 1.23.495 0 .707-.197.86-.452h.032c-.032.718-.277 1.213-1.246 1.213m.582-1.393c-.353 0-.528-.233-.528-.61 0-.467.224-.68.544-.68.387 0 .588.392.588.752 0 .26-.239.538-.604.538m4.53.039c0-1.263-.43-2.003-1.361-2.003-.995 0-1.355.746-1.355 2.003 0 1.25.42 1.997 1.355 1.997.996 0 1.361-.746 1.361-1.997m-1.361 1.333c-.413 0-.538-.447-.538-1.333 0-.888.125-1.34.538-1.34.408 0 .545.452.545 1.34 0 .892-.137 1.333-.545 1.333M22 9.8c0 1.81-1.087 3.33-2.718 5.058-.817.863-2.438 2.243-3.946 3.478l-1.421-1.422c1.549-1.266 3.163-2.637 3.914-3.43C19.391 11.83 20 10.798 20 9.8 20 7.705 18.407 6 16.448 6 13 6 12 9 12 9s-1-3-4.359-3C5.701 6 4 7.776 4 9.8c0 .949.136 1.945 1.78 3.685.672.71 2.117 1.892 3.595 3.04V15h2v5h-5v-2h1.62l.007-.008c-1.459-1.138-2.932-2.347-3.675-3.133C2.396 12.815 2 11.359 2 9.8 2 6.656 4.583 4 7.641 4 11 4 12 6 12 6s1-2 4.448-2C19.51 4 22 6.602 22 9.8" fill="#15166D"></path></svg>