<svg fill="#ffffff" xmlns="http://www.w3.org/2000/svg"  viewBox="0 0 48 48" width="48px" height="48px"><path d="M 23.986328 3.4550781 C 12.682328 3.4550781 3.4863281 12.651078 3.4863281 23.955078 C 3.4863281 35.259078 12.682328 44.455078 23.986328 44.455078 C 35.290328 44.455078 44.486328 35.259078 44.486328 23.955078 C 44.486328 12.651078 35.290328 3.4550781 23.986328 3.4550781 z M 23.984375 7.4550781 C 25.380375 7.4550781 26.729391 7.6485625 28.025391 7.9765625 L 28.035156 9.4316406 C 28.041156 10.256641 28.712156 10.919922 29.535156 10.919922 L 29.546875 10.919922 C 30.374875 10.913922 31.041156 10.237203 31.035156 9.4082031 L 31.033203 9.0585938 C 36.609203 11.708594 40.484375 17.379125 40.484375 23.953125 C 40.486375 30.534125 36.603578 36.212375 31.017578 38.859375 L 31.015625 38.480469 C 31.009625 37.655469 30.338625 36.992188 29.515625 36.992188 L 29.503906 36.992188 C 28.675906 36.998188 28.009625 37.674906 28.015625 38.503906 L 28.025391 39.933594 C 26.730391 40.261594 25.380375 40.455078 23.984375 40.455078 C 22.608375 40.455078 21.279 40.266266 20 39.947266 L 19.990234 38.511719 C 19.984234 37.686719 19.313234 37.023438 18.490234 37.023438 L 18.478516 37.023438 C 17.650516 37.029438 16.984234 37.704203 16.990234 38.533203 L 16.992188 38.878906 C 11.385188 36.239906 7.4863281 30.551078 7.4863281 23.955078 C 7.4863281 17.352078 11.393766 11.660391 17.009766 9.0253906 L 17.013672 9.4628906 C 17.019672 10.287891 17.690672 10.951172 18.513672 10.951172 L 18.523438 10.951172 C 19.351437 10.945172 20.019672 10.270406 20.013672 9.4414062 L 20.001953 7.9628906 C 21.279953 7.6438906 22.609375 7.4550781 23.984375 7.4550781 z M 27.566406 10.978516 C 26.640342 10.889033 25.747266 11.457937 25.462891 12.382812 C 25.138891 13.438812 25.732109 14.557812 26.787109 14.882812 C 30.798109 16.115812 33.492188 19.769609 33.492188 23.974609 C 33.492188 29.217609 29.230187 33.482422 23.992188 33.482422 C 18.754188 33.482422 14.492188 29.217609 14.492188 23.974609 C 14.492188 19.796609 17.166531 16.148438 21.144531 14.898438 C 22.198531 14.567438 22.784125 13.444625 22.453125 12.390625 C 22.122125 11.336625 20.995313 10.753031 19.945312 11.082031 C 14.292313 12.858031 10.492187 18.038656 10.492188 23.972656 C 10.492188 31.421656 16.548187 37.482422 23.992188 37.482422 C 31.436187 37.482422 37.492187 31.421656 37.492188 23.972656 C 37.492188 17.999656 33.662891 12.810594 27.962891 11.058594 C 27.830891 11.018094 27.698701 10.991299 27.566406 10.978516 z"/></svg>